<svg id="visual" viewBox="0 0 960 540" width="960" height="540" xmlns="http://www.w3.org/2000/svg" xmlns:xlink="http://www.w3.org/1999/xlink" version="1.1"><rect width="960" height="540" fill="#1a202c"></rect><g><g transform="translate(227 364)"><path d="M69.6 -84.2C80.2 -74 71.9 -42.6 73.1 -15.8C74.3 11 85.1 33.2 81 52.9C76.9 72.7 58 90 39.1 88.8C20.2 87.7 1.3 68 -14.3 55.3C-29.9 42.7 -42.2 37.1 -46.7 27.8C-51.1 18.4 -47.6 5.3 -43.7 -6.2C-39.9 -17.6 -35.6 -27.5 -28.2 -38.2C-20.9 -48.9 -10.4 -60.4 9.5 -71.8C29.5 -83.1 59 -94.3 69.6 -84.2Z" fill="#FF0066"></path></g><g transform="translate(720 376)"><path d="M70.8 -86.9C90.7 -67.6 105.1 -44.4 100.6 -24.5C96.1 -4.6 72.7 11.9 58.7 31.6C44.6 51.3 40 74.1 26.7 83.3C13.4 92.4 -8.4 87.8 -24 77.3C-39.6 66.7 -48.9 50.2 -67.4 32.1C-85.8 14.1 -113.4 -5.4 -111.5 -20.3C-109.7 -35.3 -78.4 -45.7 -54.9 -64.4C-31.4 -83.1 -15.7 -110 4.9 -115.8C25.4 -121.6 50.9 -106.2 70.8 -86.9Z" fill="#FF0066"></path></g><g transform="translate(495 168)"><path d="M64 -80.7C78.3 -64.2 82 -39.7 79.4 -19.2C76.8 1.2 67.8 17.6 60.9 40.4C54 63.2 49.1 92.4 31.8 107.6C14.4 122.7 -15.5 123.8 -35.7 110.9C-55.9 98 -66.3 71.1 -78.4 46.9C-90.4 22.6 -104.2 0.9 -103.4 -20.8C-102.5 -42.4 -87.2 -64.1 -67.6 -79.6C-47.9 -95.1 -24 -104.6 0.4 -105.1C24.8 -105.6 49.7 -97.2 64 -80.7Z" fill="#FF0066"></path></g></g></svg>