<svg id="visual" viewBox="0 0 960 540" width="960" height="540" xmlns="http://www.w3.org/2000/svg" xmlns:xlink="http://www.w3.org/1999/xlink" version="1.1">
	</rect>
	<g>
		<g transform="translate(469 204)">
			<path d="M58.4 -72.8C72.8 -57.5 79.7 -36.4 78.6 -17.6C77.5 1.2 68.4 17.7 59.3 35C50.2 52.3 41.2 70.4 25.1 81.9C9 93.4 -14.3 98.2 -33.8 91.7C-53.4 85.1 -69.3 67.1 -70.4 48.7C-71.6 30.2 -58 11.2 -51.2 -5.8C-44.3 -22.8 -44.2 -37.7 -36.8 -54.2C-29.4 -70.8 -14.7 -88.9 3.6 -93.3C22 -97.6 44 -88.1 58.4 -72.8Z" fill="#FF0066">
			</path>
		</g>
		<g transform="translate(162 219)">
			<path d="M58.7 -57.7C75.3 -56 87.5 -36.8 84.4 -20C81.3 -3.1 63 11.3 51.7 28.8C40.3 46.3 36.1 66.8 23.1 77.6C10.1 88.5 -11.5 89.8 -25.1 80C-38.8 70.3 -44.5 49.6 -49.5 32.6C-54.6 15.6 -59.1 2.2 -59.5 -13.1C-60 -28.4 -56.4 -45.6 -45.8 -48.4C-35.2 -51.2 -17.6 -39.5 1.7 -41.5C21 -43.6 42.1 -59.4 58.7 -57.7Z" fill="#FF0066">
			</path>
		</g>
		<g transform="translate(797 312)">
			<path d="M74.6 -75.1C97.4 -69.8 117.2 -47 115.4 -25.1C113.7 -3.2 90.4 17.8 73.3 37.6C56.2 57.3 45.3 75.8 31.5 76.5C17.7 77.2 1 60.2 -22.2 54.5C-45.3 48.9 -74.9 54.6 -88.1 44.6C-101.4 34.6 -98.2 8.9 -90.1 -12.2C-82 -33.4 -69 -50 -53.1 -56.6C-37.3 -63.1 -18.6 -59.6 3.6 -63.9C25.9 -68.3 51.8 -80.4 74.6 -75.1Z" fill="#FF0066">
			</path>
		</g>
	</g>
</svg>
