<svg id="visual" viewBox="0 0 960 540" width="960" height="540" xmlns="http://www.w3.org/2000/svg" xmlns:xlink="http://www.w3.org/1999/xlink" version="1.1">
	<g>
		<g transform="translate(798 341)">
			<path d="M36.3 -54.5C50.2 -31.7 66.8 -23.2 75.8 -8C84.8 7.1 86.3 28.9 75.7 40.3C65 51.7 42.3 52.8 21.7 61C1 69.1 -17.6 84.3 -42.5 87.8C-67.4 91.3 -98.6 83.1 -117.5 62.1C-136.4 41.1 -143.1 7.4 -130.5 -15.9C-117.9 -39.2 -86.1 -52 -61.2 -72.9C-36.2 -93.8 -18.1 -122.8 -3.4 -118.7C11.2 -114.6 22.4 -77.4 36.3 -54.5Z" fill="#FF0066">
			</path>
		</g>
		<g transform="translate(469 191)">
			<path d="M48.5 -62.6C59.4 -48.6 62.6 -30.1 65.5 -11.8C68.4 6.5 71.1 24.5 68.6 49.8C66.2 75.2 58.6 107.8 37.9 124C17.1 140.2 -16.9 140 -33.1 121.1C-49.2 102.1 -47.5 64.3 -48.4 39.3C-49.4 14.3 -52.9 2.2 -52.9 -11.2C-52.8 -24.6 -49 -39.3 -39.6 -53.7C-30.2 -68 -15.1 -82.1 1.8 -84.2C18.7 -86.4 37.5 -76.7 48.5 -62.6Z" fill="#FF0066">
			</path>
		</g>
		<g transform="translate(180 300)">
			<path d="M32.9 -39.9C48.4 -26.3 70.7 -21.3 72.1 -12.8C73.5 -4.3 54 7.8 41.4 18.6C28.9 29.4 23.2 38.8 13.6 46.3C3.9 53.7 -9.8 59.2 -26.8 59.2C-43.8 59.3 -64 54 -69.8 41.5C-75.6 29 -66.9 9.4 -61.8 -9.4C-56.6 -28.1 -55.1 -46 -45.4 -60.6C-35.7 -75.2 -17.9 -86.6 -4.6 -81.1C8.7 -75.7 17.5 -53.4 32.9 -39.9Z" fill="#FF0066">
			</path>
		</g>
	</g>
</svg>
